# xmcd
# Track frame offsets:
# 150
# 14750
# 26635
# 37615
# 53405
# 64275
# 80358
# 91100
# 103108
# 115863
#
# Disc length: 1695 seconds
# Revision: 0
# Processed by: cddbd v1.4PL0 Copyright (c) Steve Scherf et al.
# Submitted via: VisiTrax 2.9.5.180 - For more info visit www.synapsa.com
#
DISCID=71069d0a
DTITLE=Andy Martin - Where I'm coming from
DYEAR=1998
DGENRE=
TTITLE0=Breaking in my broken heart
TTITLE1=Where I'm coming from
TTITLE2=Lonesome love list
TTITLE3=A safe place to fall
TTITLE4=Stay out of my arms
TTITLE5=What more do you want
TTITLE6=Unfit to be tied
TTITLE7=Love can be as cold as hell
TTITLE8=Out of her forever loving mind
TTITLE9=Whatever it might be
EXTD=
EXTT0=
EXTT1=
EXTT2=
EXTT3=
EXTT4=
EXTT5=
EXTT6=
EXTT7=
EXTT8=
EXTT9=
PLAYORDER=
